<svg width="26" height="31" viewBox="0 0 26 31" fill="none" xmlns="http://www.w3.org/2000/svg">
<path d="M24.4335 10.569C24.2537 10.7085 21.079 12.4974 21.079 16.475C21.079 21.0759 25.1187 22.7036 25.2396 22.7439C25.221 22.8431 24.5979 24.973 23.1097 27.1432C21.7828 29.053 20.3969 30.9597 18.2887 30.9597C16.1805 30.9597 15.638 29.7351 13.2042 29.7351C10.8325 29.7351 9.9892 31 8.06081 31C6.13241 31 4.78688 29.2328 3.23982 27.0626C1.44784 24.5142 0 20.5551 0 16.7975C0 10.7705 3.91879 7.57406 7.77558 7.57406C9.82488 7.57406 11.5332 8.91959 12.8198 8.91959C14.0444 8.91959 15.9542 7.49345 18.2856 7.49345C19.1692 7.49345 22.3439 7.57406 24.4335 10.569ZM17.1788 4.94189C18.143 3.79788 18.8251 2.21052 18.8251 0.623162C18.8251 0.40304 18.8065 0.179818 18.7662 0C17.1974 0.0589059 15.331 1.0448 14.2056 2.35003C13.322 3.35454 12.4973 4.94189 12.4973 6.55095C12.4973 6.79278 12.5377 7.0346 12.5563 7.11211C12.6555 7.13071 12.8167 7.15241 12.9779 7.15241C14.3854 7.15241 16.1557 6.20992 17.1788 4.94189Z" fill="white"/>
</svg>
