<svg width="29" height="29" viewBox="0 0 29 29" fill="none" xmlns="http://www.w3.org/2000/svg">
<rect x="0.336914" y="0.153809" width="28.4501" height="28.4501" rx="5.33439" fill="url(#paint0_linear_407_511)"/>
<path d="M8.13808 21.851H20.985C22.6378 21.851 23.4522 21.0446 23.4522 19.4158V11.6469C23.4522 10.0101 22.6378 9.21167 20.985 9.21167H18.6136V8.5809C18.6136 7.07983 17.8232 6.3772 16.378 6.3772H12.7451C11.3877 6.3772 10.5174 7.07983 10.5174 8.5809V9.21167H8.13808C6.49329 9.21167 5.6709 10.0101 5.6709 11.6469V19.4158C5.6709 21.0446 6.49329 21.851 8.13808 21.851ZM11.755 8.49307C11.755 7.88625 12.1063 7.54292 12.7291 7.54292H16.394C17.0168 7.54292 17.3761 7.88625 17.3761 8.49307V9.21167H11.755V8.49307ZM6.95639 11.7108C6.95639 10.8884 7.37158 10.4892 8.15405 10.4892H20.969C21.7515 10.4892 22.1667 10.8884 22.1667 11.7108V12.7168C19.8991 13.4993 17.3281 13.8905 14.5655 13.8905C11.7949 13.8905 9.22396 13.4993 6.95639 12.7168V11.7108ZM8.15405 20.5735C7.37158 20.5735 6.95639 20.1663 6.95639 19.3519V14.0502C8.65707 14.5772 10.5015 14.9125 12.4417 15.0483V15.695C12.4417 16.2539 12.7611 16.5653 13.32 16.5653H15.8031C16.37 16.5653 16.6894 16.2539 16.6894 15.695V15.0483C18.6216 14.9125 20.466 14.5772 22.1667 14.0502V19.3519C22.1667 20.1663 21.7515 20.5735 20.969 20.5735H8.15405Z" fill="white"/>
<defs>
<linearGradient id="paint0_linear_407_511" x1="-4.01135" y1="-0.385697" x2="31.8232" y2="3.23562" gradientUnits="userSpaceOnUse">
<stop stop-color="#00D7BD"/>
<stop offset="1" stop-color="#03BFD9"/>
</linearGradient>
</defs>
</svg>
