<svg width="18" height="20" viewBox="0 0 18 20" fill="none" xmlns="http://www.w3.org/2000/svg">
<path d="M7.5647 8.36481C7.40912 8.22647 7.20819 8.15003 7 8.15L7.5647 8.36481ZM7.5647 8.36481C7.71924 8.50224 7.81835 8.69126 7.84354 8.89644M7.5647 8.36481L7.84354 8.89644M7.84354 8.89644L7.85 9.00448V13.9998C7.84976 14.2165 7.7668 14.4249 7.61808 14.5824C7.46936 14.7399 7.26609 14.8347 7.04981 14.8474C6.83354 14.8601 6.62058 14.7898 6.45444 14.6507C6.28939 14.5126 6.18293 14.317 6.15646 14.1035L6.15 13.9955V9C6.15 8.77457 6.23955 8.55836 6.39896 8.39896C6.55836 8.23956 6.77455 8.15001 6.99998 8.15L7.84354 8.89644ZM13.5777 3.04736L13.6118 3.15H13.72H17C17.2254 3.15 17.4416 3.23955 17.601 3.39896C17.7604 3.55837 17.85 3.77457 17.85 4C17.85 4.22543 17.7604 4.44164 17.601 4.60104C17.4416 4.76045 17.2254 4.85 17 4.85H16.8562L16.8501 4.99367L16.8472 5.06245L15.9804 17.2033C15.929 17.9221 15.6072 18.5947 15.0798 19.0858C14.5524 19.5769 13.8586 19.8499 13.138 19.85H4.862C4.1414 19.8499 3.44757 19.5769 2.92019 19.0858C2.3928 18.5947 2.07102 17.9221 2.01962 17.2033L1.15262 5.05932L1.15255 5.05838C1.15101 5.03855 1.15016 5.01867 1.15 4.99878L1.14878 4.85H1C0.774566 4.85 0.558365 4.76045 0.398959 4.60104C0.239553 4.44163 0.15 4.22543 0.15 4C0.15 3.77457 0.239553 3.55837 0.398959 3.39896C0.558365 3.23955 0.774566 3.15 1 3.15H4.28H4.38818L4.42233 3.04736L4.96531 1.4154C4.96532 1.41539 4.96532 1.41537 4.96533 1.41536C5.08808 1.04684 5.3237 0.726314 5.63881 0.499202C5.95392 0.27208 6.33253 0.149907 6.72096 0.15H6.721H11.28C11.28 0.15 11.28 0.15 11.28 0.15C11.6683 0.150109 12.0467 0.272372 12.3616 0.499472C12.6765 0.72658 12.912 1.04702 13.0347 1.4154L13.5777 3.04736ZM15.1466 5.01068L15.1581 4.85H14.997H3.003H2.84191L2.85338 5.01068L3.71538 17.0816C3.71538 17.0817 3.71538 17.0817 3.71538 17.0817C3.73603 17.3717 3.86578 17.6431 4.0785 17.8414C4.29123 18.0396 4.57116 18.1499 4.86193 18.15H4.862H13.138H13.1381C13.4288 18.1499 13.7088 18.0396 13.9215 17.8414C14.1342 17.6431 14.264 17.3717 14.2846 17.0817C14.2846 17.0817 14.2846 17.0817 14.2846 17.0816L15.1466 5.01068ZM11.4223 1.95261L11.3881 1.85H11.28H6.72H6.61185L6.57768 1.95261L6.24468 2.95261L6.17895 3.15H6.387H11.613H11.821L11.7553 2.95261L11.4223 1.95261ZM11 8.15C11.2254 8.15 11.4416 8.23955 11.601 8.39896C11.7604 8.55836 11.85 8.77457 11.85 9V14C11.85 14.2254 11.7604 14.4416 11.601 14.601C11.4416 14.7604 11.2254 14.85 11 14.85C10.7746 14.85 10.5584 14.7604 10.399 14.601C10.2396 14.4416 10.15 14.2254 10.15 14V9C10.15 8.77457 10.2396 8.55836 10.399 8.39896C10.5584 8.23955 10.7746 8.15 11 8.15Z" fill="#DC2430" stroke="#EFF3FF" stroke-width="0.3"/>
</svg>
