<svg width="22" height="21" viewBox="0 0 22 21" fill="none" xmlns="http://www.w3.org/2000/svg">
<path d="M17.4254 0.142858H4.56828C2.43881 0.142858 0.711133 1.87054 0.711133 4V16.8571C0.711133 18.9866 2.43881 20.7143 4.56828 20.7143H11.6933V12.7455H9.0147V9.63839H11.6933V7.34821C11.6933 4.69643 13.3272 3.25 15.6977 3.25C16.8227 3.25 17.8004 3.33036 18.0817 3.37054V6.14286L16.4477 6.15625C15.1486 6.15625 14.9076 6.75893 14.9076 7.65625V9.63839H17.9745L17.5727 12.7455H14.9076V20.7143H17.4254C19.5549 20.7143 21.2826 18.9866 21.2826 16.8571V4C21.2826 1.87054 19.5549 0.142858 17.4254 0.142858Z" fill="#98B2DE"/>
</svg>
