<svg width="48" height="48" viewBox="0 0 48 48" fill="none" xmlns="http://www.w3.org/2000/svg">
<rect width="48" height="48" rx="24" fill="#2F498C"/>
<path fill-rule="evenodd" clip-rule="evenodd" d="M16.7964 16.1301C16.1056 16.8746 15.519 17.6982 15.1024 18.6402C15.5794 19.0171 16.0564 19.3952 16.5329 19.7729C17.1189 20.2373 17.7041 20.7011 18.2877 21.1615C18.337 21.201 18.3918 21.2348 18.4466 21.2687C18.8085 20.2477 19.3622 19.3565 20.1407 18.612C22.405 16.446 25.8863 16.4234 28.019 18.4315C28.1547 18.561 28.2175 18.4924 28.2908 18.4125C28.3005 18.4019 28.3103 18.3912 28.3206 18.3807C28.6392 18.0549 28.9564 17.7284 29.2734 17.4019C29.8018 16.8579 30.3299 16.3141 30.8644 15.7747C31.0344 15.6055 30.996 15.5265 30.8425 15.3912C28.4192 13.2477 25.6177 12.4862 22.4872 12.9995C20.2504 13.3662 18.3589 14.4492 16.7964 16.1301ZM19.6745 27.5751C19.1099 26.932 18.7316 26.1818 18.4245 25.3809C17.8681 25.8236 17.313 26.2678 16.7579 26.712C16.2028 27.1562 15.6477 27.6004 15.0912 28.0432C15.7327 29.4139 16.6373 30.5702 17.7941 31.5066C20.5846 33.7741 23.7316 34.3382 27.1362 33.4469C28.5835 33.069 29.8664 32.3639 30.9574 31.2979C29.9706 30.5082 28.9838 29.7185 27.9969 28.9232C27.9473 28.8823 27.8997 28.8374 27.8516 28.792C27.8201 28.7622 27.7883 28.7323 27.7557 28.7032C26.9114 29.2334 26.0123 29.5775 25.0199 29.6846C22.8873 29.9103 21.111 29.2052 19.6745 27.5751ZM29.4848 30.112L29.4828 30.1104C28.9894 29.7141 28.4959 29.3178 28.0025 28.9229C27.9327 28.8691 27.8699 28.8081 27.8085 28.7485L27.8084 28.7485C27.7926 28.7332 27.7769 28.718 27.7612 28.703C28.4301 28.1784 28.9893 27.5579 29.3566 26.7682C29.5047 26.4523 29.6033 26.1252 29.702 25.7924C29.7678 25.5611 29.7459 25.4709 29.4718 25.4765C28.2969 25.4886 27.1221 25.4863 25.9473 25.484L25.9458 25.484C25.4764 25.4831 25.007 25.4822 24.5375 25.4822C24.1867 25.4822 24.1867 25.4822 24.1867 25.1099C24.1867 24.824 24.187 24.5377 24.1874 24.2513V24.2508C24.1884 23.3902 24.1894 22.5281 24.1812 21.6691C24.1812 21.4491 24.2196 21.3645 24.4608 21.3645C26.7347 21.373 29.0086 21.3719 31.2824 21.3709C32.0404 21.3705 32.7983 21.3702 33.5562 21.3702C33.7207 21.3702 33.8248 21.3814 33.8522 21.5845C34.2305 24.3146 33.929 26.9205 32.5365 29.3291C32.1143 30.068 31.6044 30.7392 30.963 31.2976C30.4703 30.9033 29.9775 30.5077 29.4848 30.112ZM16.758 26.7119C17.3131 26.2677 17.8682 25.8235 18.4246 25.3807C18.0244 24.01 18.0025 22.6393 18.4466 21.2743L18.4465 21.2743C18.3917 21.2405 18.3369 21.2066 18.2876 21.1671C17.7558 20.7469 17.2239 20.3252 16.6921 19.9036C16.1603 19.482 15.6286 19.0604 15.0968 18.6401C15.0791 18.6746 15.0599 18.709 15.0407 18.7437C15.0063 18.8056 14.9714 18.8684 14.9433 18.9335C14.1154 20.7779 13.8358 22.7127 14.088 24.7264C14.236 25.8883 14.5485 27.0052 15.0913 28.0431C15.6478 27.6003 16.2029 27.1561 16.758 26.7119Z" fill="white"/>
</svg>
