<svg width="180" height="70" viewBox="0 0 180 70" fill="none" xmlns="http://www.w3.org/2000/svg">
<rect width="180" height="70" rx="8" fill="#163676"/>
<path d="M58.778 47.18C57.662 47.18 56.726 47.018 55.97 46.694C55.226 46.358 54.656 45.926 54.26 45.398C53.876 44.858 53.672 44.294 53.648 43.706C53.648 43.598 53.684 43.508 53.756 43.436C53.828 43.364 53.918 43.328 54.026 43.328H55.628C55.784 43.328 55.898 43.364 55.97 43.436C56.054 43.496 56.126 43.574 56.186 43.67C56.258 43.898 56.396 44.126 56.6 44.354C56.804 44.57 57.08 44.75 57.428 44.894C57.788 45.038 58.238 45.11 58.778 45.11C59.642 45.11 60.284 44.966 60.704 44.678C61.136 44.39 61.352 44 61.352 43.508C61.352 43.16 61.238 42.884 61.01 42.68C60.782 42.464 60.428 42.272 59.948 42.104C59.48 41.924 58.856 41.738 58.076 41.546C57.176 41.33 56.42 41.072 55.808 40.772C55.208 40.46 54.752 40.07 54.44 39.602C54.14 39.134 53.99 38.54 53.99 37.82C53.99 37.124 54.176 36.506 54.548 35.966C54.932 35.426 55.472 35 56.168 34.688C56.876 34.376 57.716 34.22 58.688 34.22C59.468 34.22 60.158 34.328 60.758 34.544C61.358 34.748 61.856 35.024 62.252 35.372C62.648 35.708 62.948 36.074 63.152 36.47C63.368 36.854 63.482 37.232 63.494 37.604C63.494 37.7 63.458 37.79 63.386 37.874C63.326 37.946 63.236 37.982 63.116 37.982H61.442C61.346 37.982 61.25 37.958 61.154 37.91C61.058 37.862 60.98 37.772 60.92 37.64C60.848 37.268 60.614 36.95 60.218 36.686C59.822 36.422 59.312 36.29 58.688 36.29C58.04 36.29 57.518 36.41 57.122 36.65C56.726 36.89 56.528 37.262 56.528 37.766C56.528 38.102 56.624 38.384 56.816 38.612C57.02 38.828 57.338 39.02 57.77 39.188C58.214 39.356 58.796 39.536 59.516 39.728C60.536 39.956 61.37 40.22 62.018 40.52C62.666 40.82 63.14 41.204 63.44 41.672C63.74 42.128 63.89 42.71 63.89 43.418C63.89 44.21 63.674 44.888 63.242 45.452C62.822 46.004 62.228 46.43 61.46 46.73C60.692 47.03 59.798 47.18 58.778 47.18ZM66.6688 47C66.5488 47 66.4468 46.958 66.3628 46.874C66.2788 46.79 66.2368 46.688 66.2368 46.568V38.072C66.2368 37.952 66.2788 37.85 66.3628 37.766C66.4468 37.682 66.5488 37.64 66.6688 37.64H68.0728C68.1928 37.64 68.2948 37.682 68.3788 37.766C68.4628 37.85 68.5048 37.952 68.5048 38.072V38.684C68.7568 38.348 69.0928 38.066 69.5128 37.838C69.9448 37.598 70.4548 37.472 71.0428 37.46C72.4108 37.436 73.3648 37.97 73.9048 39.062C74.1808 38.582 74.5768 38.198 75.0928 37.91C75.6208 37.61 76.2028 37.46 76.8388 37.46C77.4628 37.46 78.0268 37.604 78.5308 37.892C79.0468 38.18 79.4488 38.618 79.7368 39.206C80.0368 39.782 80.1868 40.514 80.1868 41.402V46.568C80.1868 46.688 80.1448 46.79 80.0608 46.874C79.9768 46.958 79.8748 47 79.7548 47H78.2788C78.1588 47 78.0568 46.958 77.9728 46.874C77.8888 46.79 77.8468 46.688 77.8468 46.568V41.546C77.8468 41.006 77.7688 40.58 77.6128 40.268C77.4568 39.944 77.2468 39.716 76.9828 39.584C76.7188 39.452 76.4248 39.386 76.1008 39.386C75.8368 39.386 75.5728 39.452 75.3088 39.584C75.0448 39.716 74.8288 39.944 74.6608 40.268C74.4928 40.58 74.4088 41.006 74.4088 41.546V46.568C74.4088 46.688 74.3668 46.79 74.2828 46.874C74.1988 46.958 74.0968 47 73.9768 47H72.5008C72.3688 47 72.2608 46.958 72.1768 46.874C72.1048 46.79 72.0688 46.688 72.0688 46.568V41.546C72.0688 41.006 71.9848 40.58 71.8168 40.268C71.6488 39.944 71.4328 39.716 71.1688 39.584C70.9048 39.452 70.6228 39.386 70.3228 39.386C70.0468 39.386 69.7768 39.458 69.5128 39.602C69.2488 39.734 69.0328 39.956 68.8648 40.268C68.6968 40.58 68.6128 41.006 68.6128 41.546V46.568C68.6128 46.688 68.5708 46.79 68.4868 46.874C68.4028 46.958 68.3008 47 68.1808 47H66.6688ZM85.697 47.18C85.073 47.18 84.509 47.06 84.005 46.82C83.501 46.568 83.099 46.238 82.799 45.83C82.511 45.41 82.367 44.942 82.367 44.426C82.367 43.586 82.703 42.92 83.375 42.428C84.059 41.924 84.959 41.588 86.075 41.42L88.541 41.06V40.682C88.541 40.178 88.415 39.788 88.163 39.512C87.911 39.236 87.479 39.098 86.867 39.098C86.435 39.098 86.081 39.188 85.805 39.368C85.541 39.536 85.343 39.764 85.211 40.052C85.115 40.208 84.977 40.286 84.797 40.286H83.375C83.243 40.286 83.141 40.25 83.069 40.178C83.009 40.106 82.979 40.01 82.979 39.89C82.991 39.698 83.069 39.464 83.213 39.188C83.357 38.912 83.585 38.648 83.897 38.396C84.209 38.132 84.611 37.91 85.103 37.73C85.595 37.55 86.189 37.46 86.885 37.46C87.641 37.46 88.277 37.556 88.793 37.748C89.321 37.928 89.741 38.174 90.053 38.486C90.365 38.798 90.593 39.164 90.737 39.584C90.881 40.004 90.953 40.448 90.953 40.916V46.568C90.953 46.688 90.911 46.79 90.827 46.874C90.743 46.958 90.641 47 90.521 47H89.063C88.931 47 88.823 46.958 88.739 46.874C88.667 46.79 88.631 46.688 88.631 46.568V45.866C88.475 46.094 88.265 46.31 88.001 46.514C87.737 46.706 87.413 46.868 87.029 47C86.657 47.12 86.213 47.18 85.697 47.18ZM86.309 45.47C86.729 45.47 87.107 45.38 87.443 45.2C87.791 45.02 88.061 44.744 88.253 44.372C88.457 43.988 88.559 43.508 88.559 42.932V42.554L86.759 42.842C86.051 42.95 85.523 43.124 85.175 43.364C84.827 43.604 84.653 43.898 84.653 44.246C84.653 44.51 84.731 44.738 84.887 44.93C85.055 45.11 85.265 45.248 85.517 45.344C85.769 45.428 86.033 45.47 86.309 45.47ZM94.1942 47C94.0742 47 93.9722 46.958 93.8882 46.874C93.8042 46.79 93.7622 46.688 93.7622 46.568V38.09C93.7622 37.958 93.8042 37.85 93.8882 37.766C93.9722 37.682 94.0742 37.64 94.1942 37.64H95.6522C95.7722 37.64 95.8742 37.682 95.9582 37.766C96.0542 37.85 96.1022 37.958 96.1022 38.09V38.828C96.3782 38.444 96.7322 38.15 97.1642 37.946C97.6082 37.742 98.1182 37.64 98.6942 37.64H99.4322C99.5642 37.64 99.6662 37.682 99.7382 37.766C99.8222 37.85 99.8642 37.952 99.8642 38.072V39.368C99.8642 39.488 99.8222 39.59 99.7382 39.674C99.6662 39.758 99.5642 39.8 99.4322 39.8H98.0282C97.4522 39.8 97.0022 39.962 96.6782 40.286C96.3662 40.61 96.2102 41.054 96.2102 41.618V46.568C96.2102 46.688 96.1682 46.79 96.0842 46.874C96.0002 46.958 95.8922 47 95.7602 47H94.1942ZM105.998 47C105.278 47 104.672 46.874 104.18 46.622C103.688 46.37 103.322 45.998 103.082 45.506C102.842 45.002 102.722 44.378 102.722 43.634V39.548H101.3C101.18 39.548 101.078 39.506 100.994 39.422C100.91 39.338 100.868 39.236 100.868 39.116V38.072C100.868 37.952 100.91 37.85 100.994 37.766C101.078 37.682 101.18 37.64 101.3 37.64H102.722V34.652C102.722 34.532 102.758 34.43 102.83 34.346C102.914 34.262 103.022 34.22 103.154 34.22H104.612C104.732 34.22 104.834 34.262 104.918 34.346C105.002 34.43 105.044 34.532 105.044 34.652V37.64H107.294C107.414 37.64 107.516 37.682 107.6 37.766C107.684 37.85 107.726 37.952 107.726 38.072V39.116C107.726 39.236 107.684 39.338 107.6 39.422C107.516 39.506 107.414 39.548 107.294 39.548H105.044V43.454C105.044 43.946 105.128 44.33 105.296 44.606C105.476 44.882 105.782 45.02 106.214 45.02H107.456C107.576 45.02 107.678 45.062 107.762 45.146C107.846 45.23 107.888 45.332 107.888 45.452V46.568C107.888 46.688 107.846 46.79 107.762 46.874C107.678 46.958 107.576 47 107.456 47H105.998ZM114.575 47.18C113.459 47.18 112.523 47.018 111.767 46.694C111.023 46.358 110.453 45.926 110.057 45.398C109.673 44.858 109.469 44.294 109.445 43.706C109.445 43.598 109.481 43.508 109.553 43.436C109.625 43.364 109.715 43.328 109.823 43.328H111.425C111.581 43.328 111.695 43.364 111.767 43.436C111.851 43.496 111.923 43.574 111.983 43.67C112.055 43.898 112.193 44.126 112.397 44.354C112.601 44.57 112.877 44.75 113.225 44.894C113.585 45.038 114.035 45.11 114.575 45.11C115.439 45.11 116.081 44.966 116.501 44.678C116.933 44.39 117.149 44 117.149 43.508C117.149 43.16 117.035 42.884 116.807 42.68C116.579 42.464 116.225 42.272 115.745 42.104C115.277 41.924 114.653 41.738 113.873 41.546C112.973 41.33 112.217 41.072 111.605 40.772C111.005 40.46 110.549 40.07 110.237 39.602C109.937 39.134 109.787 38.54 109.787 37.82C109.787 37.124 109.973 36.506 110.345 35.966C110.729 35.426 111.269 35 111.965 34.688C112.673 34.376 113.513 34.22 114.485 34.22C115.265 34.22 115.955 34.328 116.555 34.544C117.155 34.748 117.653 35.024 118.049 35.372C118.445 35.708 118.745 36.074 118.949 36.47C119.165 36.854 119.279 37.232 119.291 37.604C119.291 37.7 119.255 37.79 119.183 37.874C119.123 37.946 119.033 37.982 118.913 37.982H117.239C117.143 37.982 117.047 37.958 116.951 37.91C116.855 37.862 116.777 37.772 116.717 37.64C116.645 37.268 116.411 36.95 116.015 36.686C115.619 36.422 115.109 36.29 114.485 36.29C113.837 36.29 113.315 36.41 112.919 36.65C112.523 36.89 112.325 37.262 112.325 37.766C112.325 38.102 112.421 38.384 112.613 38.612C112.817 38.828 113.135 39.02 113.567 39.188C114.011 39.356 114.593 39.536 115.313 39.728C116.333 39.956 117.167 40.22 117.815 40.52C118.463 40.82 118.937 41.204 119.237 41.672C119.537 42.128 119.687 42.71 119.687 43.418C119.687 44.21 119.471 44.888 119.039 45.452C118.619 46.004 118.025 46.43 117.257 46.73C116.489 47.03 115.595 47.18 114.575 47.18ZM122.484 50.42C122.364 50.42 122.262 50.378 122.178 50.294C122.094 50.21 122.052 50.108 122.052 49.988V38.072C122.052 37.952 122.094 37.85 122.178 37.766C122.262 37.682 122.364 37.64 122.484 37.64H123.906C124.038 37.64 124.14 37.682 124.212 37.766C124.296 37.85 124.338 37.952 124.338 38.072V38.792C124.626 38.408 125.004 38.09 125.472 37.838C125.94 37.586 126.522 37.46 127.218 37.46C127.854 37.46 128.406 37.562 128.874 37.766C129.342 37.97 129.732 38.264 130.044 38.648C130.356 39.02 130.596 39.464 130.764 39.98C130.932 40.496 131.028 41.066 131.052 41.69C131.064 41.894 131.07 42.104 131.07 42.32C131.07 42.536 131.064 42.752 131.052 42.968C131.04 43.568 130.95 44.126 130.782 44.642C130.614 45.146 130.368 45.59 130.044 45.974C129.732 46.346 129.342 46.64 128.874 46.856C128.406 47.072 127.854 47.18 127.218 47.18C126.57 47.18 126.018 47.066 125.562 46.838C125.106 46.598 124.734 46.286 124.446 45.902V49.988C124.446 50.108 124.404 50.21 124.32 50.294C124.248 50.378 124.146 50.42 124.014 50.42H122.484ZM126.552 45.254C127.068 45.254 127.47 45.146 127.758 44.93C128.046 44.702 128.25 44.408 128.37 44.048C128.502 43.688 128.58 43.292 128.604 42.86C128.628 42.5 128.628 42.14 128.604 41.78C128.58 41.348 128.502 40.952 128.37 40.592C128.25 40.232 128.046 39.944 127.758 39.728C127.47 39.5 127.068 39.386 126.552 39.386C126.06 39.386 125.658 39.5 125.346 39.728C125.046 39.956 124.824 40.25 124.68 40.61C124.548 40.958 124.47 41.318 124.446 41.69C124.434 41.906 124.428 42.134 124.428 42.374C124.428 42.614 124.434 42.848 124.446 43.076C124.458 43.436 124.542 43.784 124.698 44.12C124.854 44.444 125.082 44.714 125.382 44.93C125.682 45.146 126.072 45.254 126.552 45.254ZM137.622 47.18C136.29 47.18 135.234 46.796 134.454 46.028C133.674 45.26 133.254 44.168 133.194 42.752C133.182 42.632 133.176 42.482 133.176 42.302C133.176 42.11 133.182 41.96 133.194 41.852C133.242 40.952 133.446 40.172 133.806 39.512C134.178 38.852 134.688 38.348 135.336 38C135.984 37.64 136.746 37.46 137.622 37.46C138.594 37.46 139.41 37.664 140.07 38.072C140.73 38.468 141.228 39.026 141.564 39.746C141.9 40.454 142.068 41.276 142.068 42.212V42.59C142.068 42.71 142.026 42.812 141.942 42.896C141.858 42.98 141.75 43.022 141.618 43.022H135.642C135.642 43.022 135.642 43.04 135.642 43.076C135.642 43.112 135.642 43.142 135.642 43.166C135.654 43.586 135.732 43.976 135.876 44.336C136.032 44.684 136.254 44.966 136.542 45.182C136.842 45.398 137.196 45.506 137.604 45.506C137.94 45.506 138.222 45.458 138.45 45.362C138.678 45.254 138.864 45.134 139.008 45.002C139.152 44.87 139.254 44.762 139.314 44.678C139.422 44.534 139.506 44.45 139.566 44.426C139.638 44.39 139.74 44.372 139.872 44.372H141.42C141.54 44.372 141.636 44.408 141.708 44.48C141.792 44.552 141.828 44.642 141.816 44.75C141.804 44.942 141.702 45.176 141.51 45.452C141.33 45.728 141.066 45.998 140.718 46.262C140.37 46.526 139.932 46.748 139.404 46.928C138.888 47.096 138.294 47.18 137.622 47.18ZM135.642 41.51H139.62V41.456C139.62 40.988 139.542 40.58 139.386 40.232C139.23 39.884 139.002 39.608 138.702 39.404C138.402 39.2 138.042 39.098 137.622 39.098C137.202 39.098 136.842 39.2 136.542 39.404C136.242 39.608 136.014 39.884 135.858 40.232C135.714 40.58 135.642 40.988 135.642 41.456V41.51ZM144.911 47C144.791 47 144.689 46.958 144.605 46.874C144.521 46.79 144.479 46.688 144.479 46.568V38.072C144.479 37.952 144.521 37.85 144.605 37.766C144.689 37.682 144.791 37.64 144.911 37.64H146.387C146.507 37.64 146.609 37.682 146.693 37.766C146.777 37.85 146.819 37.952 146.819 38.072V38.81C147.131 38.426 147.527 38.108 148.007 37.856C148.499 37.592 149.105 37.46 149.825 37.46C150.557 37.46 151.193 37.628 151.733 37.964C152.273 38.288 152.687 38.75 152.975 39.35C153.275 39.95 153.425 40.67 153.425 41.51V46.568C153.425 46.688 153.383 46.79 153.299 46.874C153.215 46.958 153.113 47 152.993 47H151.409C151.289 47 151.187 46.958 151.103 46.874C151.019 46.79 150.977 46.688 150.977 46.568V41.618C150.977 40.922 150.803 40.376 150.455 39.98C150.119 39.584 149.627 39.386 148.979 39.386C148.355 39.386 147.857 39.584 147.485 39.98C147.113 40.376 146.927 40.922 146.927 41.618V46.568C146.927 46.688 146.885 46.79 146.801 46.874C146.717 46.958 146.615 47 146.495 47H144.911ZM159.685 47.18C159.061 47.18 158.509 47.078 158.029 46.874C157.561 46.658 157.171 46.358 156.859 45.974C156.547 45.59 156.307 45.14 156.139 44.624C155.971 44.096 155.875 43.52 155.851 42.896C155.839 42.68 155.833 42.488 155.833 42.32C155.833 42.14 155.839 41.942 155.851 41.726C155.875 41.126 155.965 40.568 156.121 40.052C156.289 39.536 156.529 39.086 156.841 38.702C157.165 38.306 157.561 38 158.029 37.784C158.509 37.568 159.061 37.46 159.685 37.46C160.333 37.46 160.879 37.574 161.323 37.802C161.779 38.018 162.157 38.3 162.457 38.648V34.652C162.457 34.532 162.493 34.43 162.565 34.346C162.649 34.262 162.757 34.22 162.889 34.22H164.419C164.539 34.22 164.641 34.262 164.725 34.346C164.809 34.43 164.851 34.532 164.851 34.652V46.568C164.851 46.688 164.809 46.79 164.725 46.874C164.641 46.958 164.539 47 164.419 47H162.997C162.865 47 162.757 46.958 162.673 46.874C162.601 46.79 162.565 46.688 162.565 46.568V45.902C162.265 46.274 161.881 46.58 161.413 46.82C160.957 47.06 160.381 47.18 159.685 47.18ZM160.351 45.254C160.855 45.254 161.257 45.14 161.557 44.912C161.857 44.684 162.079 44.396 162.223 44.048C162.367 43.688 162.445 43.322 162.457 42.95C162.469 42.734 162.475 42.506 162.475 42.266C162.475 42.014 162.469 41.78 162.457 41.564C162.445 41.204 162.361 40.862 162.205 40.538C162.049 40.202 161.821 39.926 161.521 39.71C161.221 39.494 160.831 39.386 160.351 39.386C159.847 39.386 159.445 39.5 159.145 39.728C158.857 39.944 158.647 40.232 158.515 40.592C158.383 40.952 158.305 41.348 158.281 41.78C158.269 42.14 158.269 42.5 158.281 42.86C158.305 43.292 158.383 43.688 158.515 44.048C158.647 44.408 158.857 44.702 159.145 44.93C159.445 45.146 159.847 45.254 160.351 45.254Z" fill="white"/>
<path d="M56.122 28C56.0487 28 55.9863 27.9743 55.935 27.923C55.8837 27.8717 55.858 27.8093 55.858 27.736V20.564C55.858 20.4907 55.8837 20.4283 55.935 20.377C55.9863 20.3257 56.0487 20.3 56.122 20.3H57.156C57.2367 20.3 57.299 20.3257 57.343 20.377C57.3943 20.4283 57.42 20.4907 57.42 20.564V27.736C57.42 27.8093 57.3943 27.8717 57.343 27.923C57.299 27.9743 57.2367 28 57.156 28H56.122ZM59.2771 28C59.2038 28 59.1414 27.9743 59.0901 27.923C59.0388 27.8717 59.0131 27.8093 59.0131 27.736V22.544C59.0131 22.4707 59.0388 22.4083 59.0901 22.357C59.1414 22.3057 59.2038 22.28 59.2771 22.28H60.1791C60.2524 22.28 60.3148 22.3057 60.3661 22.357C60.4174 22.4083 60.4431 22.4707 60.4431 22.544V22.995C60.6338 22.7603 60.8758 22.566 61.1691 22.412C61.4698 22.2507 61.8401 22.17 62.2801 22.17C62.7274 22.17 63.1161 22.2727 63.4461 22.478C63.7761 22.676 64.0291 22.9583 64.2051 23.325C64.3884 23.6917 64.4801 24.1317 64.4801 24.645V27.736C64.4801 27.8093 64.4544 27.8717 64.4031 27.923C64.3518 27.9743 64.2894 28 64.2161 28H63.2481C63.1748 28 63.1124 27.9743 63.0611 27.923C63.0098 27.8717 62.9841 27.8093 62.9841 27.736V24.711C62.9841 24.2857 62.8778 23.952 62.6651 23.71C62.4598 23.468 62.1591 23.347 61.7631 23.347C61.3818 23.347 61.0774 23.468 60.8501 23.71C60.6228 23.952 60.5091 24.2857 60.5091 24.711V27.736C60.5091 27.8093 60.4834 27.8717 60.4321 27.923C60.3808 27.9743 60.3184 28 60.2451 28H59.2771ZM68.0444 28.11C67.6044 28.11 67.2267 28.0587 66.9114 27.956C66.6034 27.8533 66.3504 27.725 66.1524 27.571C65.9544 27.417 65.8077 27.263 65.7124 27.109C65.617 26.955 65.5657 26.8267 65.5584 26.724C65.551 26.6433 65.573 26.581 65.6244 26.537C65.683 26.4857 65.7454 26.46 65.8114 26.46H66.6804C66.7097 26.46 66.7354 26.4637 66.7574 26.471C66.7794 26.4783 66.8087 26.5003 66.8454 26.537C66.9407 26.6177 67.0397 26.702 67.1424 26.79C67.2524 26.878 67.3807 26.955 67.5274 27.021C67.674 27.0797 67.8574 27.109 68.0774 27.109C68.3634 27.109 68.6017 27.054 68.7924 26.944C68.9904 26.8267 69.0894 26.6617 69.0894 26.449C69.0894 26.295 69.0454 26.1703 68.9574 26.075C68.8767 25.9797 68.7227 25.8953 68.4954 25.822C68.268 25.7413 67.9454 25.657 67.5274 25.569C67.1167 25.4737 66.7757 25.3527 66.5044 25.206C66.233 25.0593 66.0314 24.876 65.8994 24.656C65.7674 24.436 65.7014 24.1793 65.7014 23.886C65.7014 23.6 65.7857 23.3287 65.9544 23.072C66.1304 22.808 66.387 22.5917 66.7244 22.423C67.069 22.2543 67.4944 22.17 68.0004 22.17C68.3964 22.17 68.741 22.2213 69.0344 22.324C69.3277 22.4193 69.5697 22.5403 69.7604 22.687C69.9584 22.8337 70.1087 22.984 70.2114 23.138C70.314 23.2847 70.369 23.413 70.3764 23.523C70.3837 23.6037 70.3617 23.6697 70.3104 23.721C70.259 23.765 70.2004 23.787 70.1344 23.787H69.3204C69.2837 23.787 69.2507 23.7797 69.2214 23.765C69.192 23.7503 69.1627 23.732 69.1334 23.71C69.0527 23.6367 68.9647 23.5597 68.8694 23.479C68.774 23.3983 68.6567 23.3287 68.5174 23.27C68.3854 23.204 68.2094 23.171 67.9894 23.171C67.7107 23.171 67.498 23.2333 67.3514 23.358C67.2047 23.4753 67.1314 23.6257 67.1314 23.809C67.1314 23.9337 67.1644 24.0437 67.2304 24.139C67.3037 24.227 67.4467 24.3113 67.6594 24.392C67.872 24.4727 68.1947 24.557 68.6274 24.645C69.1187 24.733 69.5074 24.865 69.7934 25.041C70.0867 25.2097 70.292 25.4077 70.4094 25.635C70.534 25.855 70.5964 26.1007 70.5964 26.372C70.5964 26.702 70.4974 26.999 70.2994 27.263C70.1087 27.527 69.8227 27.736 69.4414 27.89C69.0674 28.0367 68.6017 28.11 68.0444 28.11ZM74.2954 28C73.8554 28 73.485 27.923 73.1844 27.769C72.8837 27.615 72.66 27.3877 72.5134 27.087C72.3667 26.779 72.2934 26.3977 72.2934 25.943V23.446H71.4244C71.351 23.446 71.2887 23.4203 71.2374 23.369C71.186 23.3177 71.1604 23.2553 71.1604 23.182V22.544C71.1604 22.4707 71.186 22.4083 71.2374 22.357C71.2887 22.3057 71.351 22.28 71.4244 22.28H72.2934V20.454C72.2934 20.3807 72.3154 20.3183 72.3594 20.267C72.4107 20.2157 72.4767 20.19 72.5574 20.19H73.4484C73.5217 20.19 73.584 20.2157 73.6354 20.267C73.6867 20.3183 73.7124 20.3807 73.7124 20.454V22.28H75.0874C75.1607 22.28 75.223 22.3057 75.2744 22.357C75.3257 22.4083 75.3514 22.4707 75.3514 22.544V23.182C75.3514 23.2553 75.3257 23.3177 75.2744 23.369C75.223 23.4203 75.1607 23.446 75.0874 23.446H73.7124V25.833C73.7124 26.1337 73.7637 26.3683 73.8664 26.537C73.9764 26.7057 74.1634 26.79 74.4274 26.79H75.1864C75.2597 26.79 75.322 26.8157 75.3734 26.867C75.4247 26.9183 75.4504 26.9807 75.4504 27.054V27.736C75.4504 27.8093 75.4247 27.8717 75.3734 27.923C75.322 27.9743 75.2597 28 75.1864 28H74.2954ZM78.0872 28.11C77.7059 28.11 77.3612 28.0367 77.0532 27.89C76.7452 27.736 76.4995 27.5343 76.3162 27.285C76.1402 27.0283 76.0522 26.7423 76.0522 26.427C76.0522 25.9137 76.2575 25.5067 76.6682 25.206C77.0862 24.898 77.6362 24.6927 78.3182 24.59L79.8252 24.37V24.139C79.8252 23.831 79.7482 23.5927 79.5942 23.424C79.4402 23.2553 79.1762 23.171 78.8022 23.171C78.5382 23.171 78.3219 23.226 78.1532 23.336C77.9919 23.4387 77.8709 23.578 77.7902 23.754C77.7315 23.8493 77.6472 23.897 77.5372 23.897H76.6682C76.5875 23.897 76.5252 23.875 76.4812 23.831C76.4445 23.787 76.4262 23.7283 76.4262 23.655C76.4335 23.5377 76.4812 23.3947 76.5692 23.226C76.6572 23.0573 76.7965 22.896 76.9872 22.742C77.1779 22.5807 77.4235 22.445 77.7242 22.335C78.0249 22.225 78.3879 22.17 78.8132 22.17C79.2752 22.17 79.6639 22.2287 79.9792 22.346C80.3019 22.456 80.5585 22.6063 80.7492 22.797C80.9399 22.9877 81.0792 23.2113 81.1672 23.468C81.2552 23.7247 81.2992 23.996 81.2992 24.282V27.736C81.2992 27.8093 81.2735 27.8717 81.2222 27.923C81.1709 27.9743 81.1085 28 81.0352 28H80.1442C80.0635 28 79.9975 27.9743 79.9462 27.923C79.9022 27.8717 79.8802 27.8093 79.8802 27.736V27.307C79.7849 27.4463 79.6565 27.5783 79.4952 27.703C79.3339 27.8203 79.1359 27.9193 78.9012 28C78.6739 28.0733 78.4025 28.11 78.0872 28.11ZM78.4612 27.065C78.7179 27.065 78.9489 27.01 79.1542 26.9C79.3669 26.79 79.5319 26.6213 79.6492 26.394C79.7739 26.1593 79.8362 25.866 79.8362 25.514V25.283L78.7362 25.459C78.3035 25.525 77.9809 25.6313 77.7682 25.778C77.5555 25.9247 77.4492 26.1043 77.4492 26.317C77.4492 26.4783 77.4969 26.6177 77.5922 26.735C77.6949 26.845 77.8232 26.9293 77.9772 26.988C78.1312 27.0393 78.2925 27.065 78.4612 27.065ZM82.9854 28C82.912 28 82.8497 27.9743 82.7984 27.923C82.747 27.8717 82.7214 27.8093 82.7214 27.736V20.454C82.7214 20.3807 82.747 20.3183 82.7984 20.267C82.8497 20.2157 82.912 20.19 82.9854 20.19H83.8984C83.9717 20.19 84.034 20.2157 84.0854 20.267C84.1367 20.3183 84.1624 20.3807 84.1624 20.454V27.736C84.1624 27.8093 84.1367 27.8717 84.0854 27.923C84.034 27.9743 83.9717 28 83.8984 28H82.9854ZM85.8965 28C85.8232 28 85.7608 27.9743 85.7095 27.923C85.6582 27.8717 85.6325 27.8093 85.6325 27.736V20.454C85.6325 20.3807 85.6582 20.3183 85.7095 20.267C85.7608 20.2157 85.8232 20.19 85.8965 20.19H86.8095C86.8828 20.19 86.9452 20.2157 86.9965 20.267C87.0478 20.3183 87.0735 20.3807 87.0735 20.454V27.736C87.0735 27.8093 87.0478 27.8717 86.9965 27.923C86.9452 27.9743 86.8828 28 86.8095 28H85.8965ZM91.3103 28C91.237 28 91.1746 27.9743 91.1233 27.923C91.072 27.8717 91.0463 27.8093 91.0463 27.736V22.544C91.0463 22.4707 91.072 22.4083 91.1233 22.357C91.1746 22.3057 91.237 22.28 91.3103 22.28H92.2123C92.2856 22.28 92.348 22.3057 92.3993 22.357C92.4506 22.4083 92.4763 22.4707 92.4763 22.544V22.995C92.667 22.7603 92.909 22.566 93.2023 22.412C93.503 22.2507 93.8733 22.17 94.3133 22.17C94.7606 22.17 95.1493 22.2727 95.4793 22.478C95.8093 22.676 96.0623 22.9583 96.2383 23.325C96.4216 23.6917 96.5133 24.1317 96.5133 24.645V27.736C96.5133 27.8093 96.4876 27.8717 96.4363 27.923C96.385 27.9743 96.3226 28 96.2493 28H95.2813C95.208 28 95.1456 27.9743 95.0943 27.923C95.043 27.8717 95.0173 27.8093 95.0173 27.736V24.711C95.0173 24.2857 94.911 23.952 94.6983 23.71C94.493 23.468 94.1923 23.347 93.7963 23.347C93.415 23.347 93.1106 23.468 92.8833 23.71C92.656 23.952 92.5423 24.2857 92.5423 24.711V27.736C92.5423 27.8093 92.5166 27.8717 92.4653 27.923C92.414 27.9743 92.3516 28 92.2783 28H91.3103ZM100.441 28.11C99.8539 28.11 99.3589 28.0073 98.9556 27.802C98.5596 27.5967 98.2552 27.307 98.0426 26.933C97.8372 26.559 97.7199 26.1227 97.6906 25.624C97.6832 25.492 97.6796 25.3307 97.6796 25.14C97.6796 24.9493 97.6832 24.788 97.6906 24.656C97.7199 24.15 97.8409 23.7137 98.0536 23.347C98.2736 22.973 98.5816 22.6833 98.9776 22.478C99.3809 22.2727 99.8686 22.17 100.441 22.17C101.013 22.17 101.497 22.2727 101.893 22.478C102.296 22.6833 102.604 22.973 102.817 23.347C103.037 23.7137 103.161 24.15 103.191 24.656C103.198 24.788 103.202 24.9493 103.202 25.14C103.202 25.3307 103.198 25.492 103.191 25.624C103.161 26.1227 103.04 26.559 102.828 26.933C102.622 27.307 102.318 27.5967 101.915 27.802C101.519 28.0073 101.027 28.11 100.441 28.11ZM100.441 27.021C100.829 27.021 101.13 26.9 101.343 26.658C101.555 26.4087 101.673 26.0457 101.695 25.569C101.702 25.459 101.706 25.316 101.706 25.14C101.706 24.964 101.702 24.821 101.695 24.711C101.673 24.2417 101.555 23.8823 101.343 23.633C101.13 23.3837 100.829 23.259 100.441 23.259C100.052 23.259 99.7512 23.3837 99.5386 23.633C99.3259 23.8823 99.2086 24.2417 99.1866 24.711C99.1792 24.821 99.1756 24.964 99.1756 25.14C99.1756 25.316 99.1792 25.459 99.1866 25.569C99.2086 26.0457 99.3259 26.4087 99.5386 26.658C99.7512 26.9 100.052 27.021 100.441 27.021ZM105.821 28C105.719 28 105.642 27.9743 105.59 27.923C105.539 27.8717 105.495 27.8057 105.458 27.725L103.885 22.621C103.878 22.5843 103.874 22.5513 103.874 22.522C103.874 22.456 103.896 22.401 103.94 22.357C103.992 22.3057 104.047 22.28 104.105 22.28H104.919C105.007 22.28 105.077 22.3057 105.128 22.357C105.18 22.401 105.209 22.445 105.216 22.489L106.294 26.13L107.438 22.522C107.453 22.4707 107.486 22.4193 107.537 22.368C107.589 22.3093 107.666 22.28 107.768 22.28H108.318C108.421 22.28 108.498 22.3093 108.549 22.368C108.601 22.4193 108.634 22.4707 108.648 22.522L109.792 26.13L110.87 22.489C110.878 22.445 110.903 22.401 110.947 22.357C110.999 22.3057 111.068 22.28 111.156 22.28H111.97C112.036 22.28 112.091 22.3057 112.135 22.357C112.187 22.401 112.212 22.456 112.212 22.522C112.212 22.5513 112.205 22.5843 112.19 22.621L110.617 27.725C110.595 27.8057 110.555 27.8717 110.496 27.923C110.445 27.9743 110.368 28 110.265 28H109.55C109.448 28 109.367 27.9743 109.308 27.923C109.25 27.8717 109.209 27.8057 109.187 27.725L108.043 24.249L106.899 27.725C106.87 27.8057 106.826 27.8717 106.767 27.923C106.716 27.9743 106.635 28 106.525 28H105.821Z" fill="white"/>
<path d="M27.4209 21V38.3684" stroke="white" stroke-width="2" stroke-linecap="round"/>
<path d="M22.7896 32.5789L27.4211 38.3684" stroke="white" stroke-width="2" stroke-linecap="round"/>
<path d="M32.0527 32.5789L27.4212 38.3684" stroke="white" stroke-width="2" stroke-linecap="round"/>
<path d="M17 39.5263V45.3158" stroke="white" stroke-width="2" stroke-linecap="round"/>
<path d="M39 39.5263V45.3158" stroke="white" stroke-width="2" stroke-linecap="round"/>
<path d="M17 45.3158L39 45.3158" stroke="white" stroke-width="2" stroke-linecap="round"/>
</svg>
