<svg width="45" height="58" viewBox="0 0 45 58" fill="none" xmlns="http://www.w3.org/2000/svg">
<path fill-rule="evenodd" clip-rule="evenodd" d="M15.9554 2.23426C11.5066 3.90255 8.91152 5.57084 6.50176 8.72206C4.09201 12.0586 3.16518 15.2099 3.35054 19.4733C3.72127 23.9221 4.83347 27.444 9.83835 32.0782L14.1018 35.6001L17.4383 33.1903L13.731 29.8538C9.09689 25.5904 7.24323 22.2538 7.24323 18.5465C7.24323 12.8001 10.2091 8.53669 16.1408 6.12694C22.9993 3.16109 30.5993 4.64401 35.7896 10.0196L38.3847 12.6147L34.492 15.3952L31.5262 12.8001C28.1896 9.83426 25.2237 9.09279 21.1457 9.64889C16.1408 10.3904 12.0627 15.2099 12.8042 19.4733C13.1749 22.2538 14.2871 23.5513 22.0725 30.7806C28.1896 36.5269 28.3749 36.7123 28.3749 38.9367C28.3749 41.7172 27.6335 43.0147 25.4091 43.9416C21.7018 45.6099 19.4774 44.8684 14.6579 40.4196L11.1359 37.083L1.68225 45.2391L5.01884 48.5757C9.83835 53.0245 11.5066 54.1367 14.6579 55.4343C18.5505 56.9172 22.9993 57.2879 27.2627 56.1757C31.7115 55.2489 34.6774 53.5806 37.8286 50.6147C41.3505 47.2782 43.0188 43.5708 42.6481 38.7513C42.4627 33.9318 40.6091 30.2245 36.531 26.1465L31.8969 21.883L28.3749 24.6635L32.0823 28.0001C36.7164 32.2635 38.5701 35.4147 38.5701 39.4928C38.5701 48.0196 29.3018 54.5074 19.6627 52.8391C15.9554 52.0977 11.692 49.8733 9.28225 47.0928L7.42859 45.2391L11.1359 42.0879L13.3603 44.4977C17.0676 48.3903 22.2579 49.5025 27.0774 47.4635C31.5262 45.6099 33.7505 41.3464 32.6384 37.2684C32.0823 35.4147 30.5993 33.7465 25.0383 28.3708C21.1457 24.6635 17.8091 21.1416 17.4383 20.4001C15.9554 16.8782 19.1066 13.3562 23.7408 13.3562C26.3359 13.3562 27.2627 13.7269 30.7847 16.8782C31.1554 17.2489 34.6774 20.4001 34.6774 20.4001L43.3896 13.1708C43.5749 12.9855 43.5749 12.9855 43.3896 12.8001L42.4627 11.5025C41.1652 9.83426 39.8676 8.35133 38.1993 7.05377C36.9018 5.94157 35.6042 5.01474 34.8627 4.45865C29.1164 0.936696 22.0725 0.195232 15.9554 2.23426Z" fill="#163676" stroke="#163676" stroke-width="1.39024" stroke-miterlimit="10"/>
</svg>
