<svg width="41" height="41" viewBox="0 0 41 41" fill="none" xmlns="http://www.w3.org/2000/svg">
<path d="M20.3727 40.7453C31.6242 40.7453 40.7453 31.6242 40.7453 20.3727C40.7453 9.12116 31.6242 0 20.3727 0C9.12116 0 0 9.12116 0 20.3727C0 31.6242 9.12116 40.7453 20.3727 40.7453Z" fill="url(#paint0_linear_1595_480)"/>
<path fill-rule="evenodd" clip-rule="evenodd" d="M16.596 6.55907C14.2109 7.45348 12.8196 8.34789 11.5277 10.0373C10.2358 11.8261 9.73888 13.5156 9.83826 15.8013C10.037 18.1864 10.6333 20.0746 13.3165 22.5591L15.6022 24.4473L17.3911 23.1553L15.4035 21.3665C12.919 19.0808 11.9252 17.292 11.9252 15.3044C11.9252 12.2237 13.5153 9.93795 16.6954 8.64602C20.3724 7.05596 24.447 7.85099 27.2296 10.733L28.6209 12.1243L26.5339 13.615L24.9438 12.2237C23.155 10.6336 21.565 10.2361 19.3786 10.5342C16.6954 10.9317 14.5091 13.5156 14.9066 15.8013C15.1053 17.292 15.7016 17.9876 19.8755 21.8634C23.155 24.9442 23.2544 25.0435 23.2544 26.2361C23.2544 27.7268 22.8569 28.4224 21.6643 28.9193C19.6768 29.8137 18.4842 29.4162 15.9004 27.0311L14.0122 25.2423L8.94385 29.615L10.7327 31.4038C13.3165 33.7889 14.2109 34.3852 15.9004 35.0808C17.9873 35.8758 20.3724 36.0746 22.6581 35.4783C25.0432 34.9814 26.6333 34.087 28.3227 32.497C30.2109 30.7081 31.1053 28.7206 30.9066 26.1367C30.8072 23.5529 29.8134 21.5653 27.6271 19.3789L25.1426 17.0932L23.2544 18.5839L25.242 20.3727C27.7265 22.6584 28.7202 24.3479 28.7202 26.5342C28.7202 31.1057 23.7513 34.5839 18.5836 33.6895C16.596 33.292 14.3103 32.0994 13.0184 30.6088L12.0246 29.615L14.0122 27.9255L15.2047 29.2175C17.1923 31.3044 19.9749 31.9007 22.5588 30.8075C24.9438 29.8137 26.1364 27.528 25.5401 25.3417C25.242 24.3479 24.447 23.4535 21.4656 20.5715C19.3786 18.5839 17.5898 16.6957 17.3911 16.2982C16.596 14.41 18.2855 12.5218 20.7699 12.5218C22.1612 12.5218 22.6581 12.7206 24.5463 14.41C24.7451 14.6088 26.6333 16.2982 26.6333 16.2982L31.3041 12.4224C31.4035 12.323 31.4035 12.323 31.3041 12.2237L30.8072 11.528C30.1115 10.6336 29.4159 9.83857 28.5215 9.14292C27.8258 8.54664 27.1302 8.04975 26.7327 7.75161C23.6519 5.86341 19.8755 5.4659 16.596 6.55907Z" fill="#163676" stroke="#163676" stroke-width="0.745342" stroke-miterlimit="10"/>
<defs>
<linearGradient id="paint0_linear_1595_480" x1="4.10345" y1="8.67916" x2="35.9047" y2="31.5363" gradientUnits="userSpaceOnUse">
<stop stop-color="#0AF0DE"/>
<stop offset="1" stop-color="#09E3FC"/>
</linearGradient>
</defs>
</svg>
