<svg width="29" height="29" viewBox="0 0 29 29" fill="none" xmlns="http://www.w3.org/2000/svg">
<rect x="0.227539" y="0.153809" width="28.4501" height="28.4501" rx="5.33439" fill="url(#paint0_linear_407_539)"/>
<path d="M8.02871 21.851H20.8756C22.5284 21.851 23.3428 21.0446 23.3428 19.4158V11.6469C23.3428 10.0101 22.5284 9.21167 20.8756 9.21167H18.5043V8.5809C18.5043 7.07983 17.7138 6.3772 16.2686 6.3772H12.6357C11.2784 6.3772 10.4081 7.07983 10.4081 8.5809V9.21167H8.02871C6.38392 9.21167 5.56152 10.0101 5.56152 11.6469V19.4158C5.56152 21.0446 6.38392 21.851 8.02871 21.851ZM11.6457 8.49307C11.6457 7.88625 11.997 7.54292 12.6197 7.54292H16.2846C16.9074 7.54292 17.2667 7.88625 17.2667 8.49307V9.21167H11.6457V8.49307ZM6.84701 11.7108C6.84701 10.8884 7.2622 10.4892 8.04468 10.4892H20.8597C21.6421 10.4892 22.0573 10.8884 22.0573 11.7108V12.7168C19.7898 13.4993 17.2188 13.8905 14.4562 13.8905C11.6856 13.8905 9.11459 13.4993 6.84701 12.7168V11.7108ZM8.04468 20.5735C7.2622 20.5735 6.84701 20.1663 6.84701 19.3519V14.0502C8.5477 14.5772 10.3921 14.9125 12.3323 15.0483V15.695C12.3323 16.2539 12.6517 16.5653 13.2106 16.5653H15.6938C16.2606 16.5653 16.58 16.2539 16.58 15.695V15.0483C18.5123 14.9125 20.3567 14.5772 22.0573 14.0502V19.3519C22.0573 20.1663 21.6421 20.5735 20.8597 20.5735H8.04468Z" fill="white"/>
<defs>
<linearGradient id="paint0_linear_407_539" x1="-0.439259" y1="6.37726" x2="28.8233" y2="7.21493" gradientUnits="userSpaceOnUse">
<stop stop-color="#FCE302"/>
<stop offset="1" stop-color="#FE5C01"/>
</linearGradient>
</defs>
</svg>
