<svg width="22" height="18" viewBox="0 0 22 18" fill="none" xmlns="http://www.w3.org/2000/svg">
<path d="M21.3519 2.89286C20.5751 3.22768 19.7314 3.46875 18.8608 3.5625C19.7581 3.02679 20.4412 2.18304 20.7626 1.17857C19.9323 1.67411 18.9948 2.03571 18.0171 2.22321C17.2269 1.37946 16.1019 0.857142 14.8564 0.857142C12.459 0.857142 10.5305 2.79911 10.5305 5.18304C10.5305 5.51786 10.5706 5.85268 10.6376 6.17411C7.04833 5.98661 3.84743 4.27232 1.71797 1.64732C1.34297 2.29018 1.12868 3.02679 1.12868 3.83036C1.12868 5.33036 1.89208 6.65625 3.05725 7.43304C2.34743 7.40625 1.67779 7.20536 1.1019 6.88393C1.1019 6.89732 1.1019 6.92411 1.1019 6.9375C1.1019 9.04018 2.5885 10.7812 4.57065 11.183C4.20904 11.2768 3.82065 11.3304 3.43225 11.3304C3.151 11.3304 2.88315 11.3036 2.61529 11.2634C3.1644 12.9777 4.75815 14.2232 6.65993 14.2634C5.17333 15.4286 3.31172 16.1116 1.2894 16.1116C0.92779 16.1116 0.592969 16.0982 0.244755 16.058C2.15993 17.2902 4.43672 18 6.88761 18C14.843 18 19.1956 11.4107 19.1956 5.69196C19.1956 5.50446 19.1956 5.31696 19.1823 5.12946C20.026 4.51339 20.7626 3.75 21.3519 2.89286Z" fill="#98B2DE"/>
</svg>
