<?xml version="1.0" standalone="no"?>
<!DOCTYPE svg PUBLIC "-//W3C//DTD SVG 20010904//EN"
 "http://www.w3.org/TR/2001/REC-SVG-20010904/DTD/svg10.dtd">
<svg version="1.0" xmlns="http://www.w3.org/2000/svg"
 width="1000.000000pt" height="1000.000000pt" viewBox="0 0 1000.000000 1000.000000"
 preserveAspectRatio="xMidYMid meet">
<metadata>
Created by potrace 1.14, written by Peter Selinger 2001-2017
</metadata>
<g transform="translate(0.000000,1000.000000) scale(0.100000,-0.100000)"
fill="#000000" stroke="none">
<path d="M4838 8075 c-2 -2 -41 -5 -88 -8 -270 -19 -590 -92 -860 -197 -30
-11 -64 -24 -75 -27 -11 -4 -99 -46 -195 -94 -424 -213 -799 -525 -1081 -899
-225 -298 -396 -639 -498 -991 -41 -141 -41 -141 11 -137 40 3 41 4 55 53 8
28 30 100 50 160 285 884 978 1590 1863 1898 74 26 212 68 239 73 7 1 34 8 60
14 53 12 77 17 146 30 112 21 98 19 295 39 76 8 488 6 525 -2 11 -3 47 -8 80
-11 51 -6 138 -19 195 -30 75 -14 107 -21 190 -43 142 -37 321 -99 448 -156
122 -53 327 -160 353 -183 8 -8 19 -14 23 -14 8 0 134 -85 218 -148 529 -393
929 -983 1100 -1627 13 -49 14 -50 56 -53 47 -3 48 -1 31 63 -66 260 -214 606
-353 825 -76 119 -105 161 -160 235 -34 44 -63 82 -66 85 -3 3 -35 40 -70 83
-259 312 -674 618 -1081 800 -262 117 -629 219 -874 242 -33 3 -78 8 -100 12
-40 5 -432 13 -437 8z"/>
<path d="M7990 5350 l0 -140 -37 35 c-38 36 -112 65 -163 65 -49 0 -126 -29
-167 -64 -110 -95 -119 -295 -18 -414 47 -56 110 -81 196 -79 79 2 119 20 166
76 l23 26 0 -47 c0 -43 2 -48 23 -49 12 -1 29 -2 37 -3 8 -1 20 2 25 5 8 6 13
615 6 717 -1 8 -17 12 -46 12 l-45 0 0 -140z m-103 -139 c81 -37 122 -145 94
-247 -36 -132 -196 -179 -294 -86 -40 37 -59 87 -59 152 0 67 11 97 52 144 50
56 131 71 207 37z"/>
<path d="M4535 5368 l1 -68 -36 0 c-37 0 -39 -3 -31 -66 0 -6 15 -11 33 -10
l32 1 1 -185 c1 -156 4 -190 19 -218 22 -42 66 -61 148 -64 l63 -3 2 38 c1 23
-2 37 -10 38 -67 3 -103 11 -115 23 -11 11 -15 51 -16 186 -1 108 2 174 9 178
5 4 33 7 60 8 28 1 56 2 63 3 7 0 12 15 12 36 l0 35 -73 0 -73 0 2 65 c2 36 0
65 -4 66 -4 1 -25 2 -47 3 l-41 3 1 -69z"/>
<path d="M2065 5301 c-84 -21 -135 -75 -135 -144 0 -84 42 -120 194 -168 106
-33 132 -56 120 -103 -19 -78 -191 -76 -223 2 -11 27 -17 30 -58 29 -44 0 -45
-1 -39 -30 10 -48 46 -88 104 -115 47 -21 64 -24 126 -19 110 8 174 57 180
140 7 83 -35 123 -173 167 -107 34 -141 57 -141 94 0 42 31 68 86 73 61 6 110
-15 125 -55 13 -34 21 -39 64 -34 39 5 42 15 21 66 -33 78 -147 122 -251 97z"/>
<path d="M2640 5294 c-19 -9 -48 -28 -63 -42 l-29 -27 2 25 c4 47 1 50 -44 50
l-43 0 -1 -269 0 -269 27 -4 c14 -2 35 -1 46 2 19 5 20 14 20 180 0 156 3 179
21 214 52 100 205 102 256 3 18 -37 21 -59 21 -219 l1 -178 25 -1 c14 0 34 -2
44 -4 10 -2 17 3 18 13 0 10 1 94 2 187 2 156 4 173 24 206 43 68 152 90 216
43 51 -37 59 -70 60 -265 1 -112 6 -179 12 -180 58 -4 67 -3 74 11 11 24 4
348 -9 394 -29 105 -152 168 -268 137 -45 -13 -109 -62 -121 -94 -7 -18 -10
-16 -29 14 -44 72 -179 110 -262 73z"/>
<path d="M3631 5299 c-115 -35 -185 -140 -183 -274 1 -70 21 -131 58 -181 83
-108 254 -124 357 -34 l44 39 -1 -47 -1 -47 38 2 c22 1 42 4 45 8 4 4 7 126 7
271 l1 264 -46 0 -46 0 1 -37 c2 -52 -3 -58 -27 -28 -45 57 -167 89 -247 64z
m168 -89 c22 -11 49 -31 60 -46 24 -31 51 -114 46 -141 -2 -10 -7 -35 -10 -56
-7 -45 -56 -104 -102 -123 -70 -30 -166 -6 -211 51 -52 66 -56 183 -8 255 49
74 147 100 225 60z"/>
<path d="M4335 5295 c-22 -8 -52 -28 -67 -45 -29 -32 -33 -28 -28 28 1 22 -2
23 -45 20 l-47 -3 1 -264 c0 -145 1 -265 3 -266 4 -4 39 -8 64 -6 21 1 21 5
22 155 0 200 5 228 48 266 32 27 59 36 107 32 14 -2 17 7 17 48 0 57 -6 59
-75 35z"/>
<path d="M5248 5301 c-42 -14 -91 -47 -107 -73 -37 -60 -17 -151 43 -187 17
-10 70 -31 119 -46 136 -42 166 -80 112 -139 -49 -53 -181 -31 -204 34 -8 23
-14 27 -55 27 -52 1 -54 -3 -27 -64 29 -63 94 -97 191 -100 128 -3 202 50 206
149 2 44 -1 53 -34 87 -31 32 -54 44 -136 70 -55 17 -110 41 -123 53 -54 51
-7 118 84 118 52 0 85 -19 105 -59 15 -30 22 -34 57 -35 36 -1 41 2 41 22 0
45 -44 103 -99 132 -30 15 -138 22 -173 11z"/>
<path d="M5866 5295 c-21 -7 -55 -27 -76 -44 -22 -17 -41 -31 -43 -31 -2 0 -3
18 -2 40 l1 41 -45 -3 -46 -3 0 -395 0 -395 45 -3 45 -3 0 174 0 175 42 -38
c135 -119 353 -51 403 125 24 87 13 188 -28 254 -60 97 -190 144 -296 106z
m141 -84 c123 -56 140 -261 29 -346 -92 -70 -235 -27 -277 84 -39 100 5 221
95 262 52 24 100 24 153 0z"/>
<path d="M6464 5292 c-115 -41 -169 -119 -173 -252 -4 -126 50 -219 156 -267
48 -22 65 -25 128 -21 88 6 150 38 196 101 37 51 35 72 -9 71 -54 -2 -56 -3
-74 -33 -46 -81 -205 -84 -267 -5 -21 26 -44 92 -37 103 3 4 99 6 214 5 206
-1 211 -1 215 20 15 64 -21 179 -71 223 -74 66 -186 88 -278 55z m175 -81 c44
-23 70 -59 78 -107 l6 -34 -172 0 -171 0 6 28 c26 109 150 165 253 113z"/>
<path d="M7122 5297 c-18 -6 -47 -23 -63 -38 -16 -15 -30 -24 -30 -21 -1 4 -2
18 -3 32 -1 23 -5 25 -46 25 l-45 0 0 -267 -1 -266 33 -4 c18 -2 39 -1 45 3 9
6 13 58 13 181 1 162 3 177 24 215 54 94 198 98 258 6 15 -23 18 -54 21 -214
l4 -187 34 -4 c19 -2 39 -1 45 3 7 4 10 70 7 205 -4 221 -7 235 -72 292 -56
49 -145 65 -224 39z"/>
<path d="M2010 4257 c0 -29 62 -234 107 -350 87 -232 180 -413 317 -617 65
-98 160 -229 175 -240 4 -3 22 -25 41 -50 54 -69 242 -259 328 -330 42 -36 79
-67 82 -70 3 -4 41 -33 85 -66 322 -242 720 -433 1100 -528 89 -22 262 -56
320 -62 27 -3 56 -7 62 -9 78 -25 591 -24 763 1 387 57 674 146 993 306 418
209 806 532 1075 894 247 332 421 689 522 1067 l18 68 -46 -3 c-39 -3 -47 -7
-53 -28 -73 -251 -120 -380 -200 -547 -69 -143 -136 -260 -230 -398 -60 -89
-182 -247 -228 -295 -250 -263 -397 -389 -621 -532 -131 -83 -422 -238 -448
-238 -5 0 -26 -9 -48 -19 -85 -41 -391 -135 -507 -155 -15 -3 -35 -7 -45 -10
-27 -8 -227 -36 -311 -44 -215 -19 -578 -4 -771 33 -14 2 -36 6 -50 9 -215 35
-549 149 -778 265 -174 87 -440 255 -514 323 -7 7 -38 33 -68 58 -167 136
-369 352 -504 539 -191 266 -355 599 -440 891 -15 52 -31 106 -35 120 -6 21
-15 26 -49 28 -31 2 -42 -1 -42 -11z"/>
</g>
</svg>
