<svg width="160" height="41" viewBox="0 0 160 41" fill="none" xmlns="http://www.w3.org/2000/svg">
<g clip-path="url(#clip0_1595_480)">
<path d="M56.7456 26.5342C55.6524 26.5342 54.758 26.3354 53.963 26.0373C53.2673 25.7391 52.671 25.2422 52.2735 24.7453C51.876 24.2484 51.6772 23.6522 51.6772 23.0559C51.6772 22.9565 51.6772 22.8571 51.7766 22.7578C51.876 22.6584 51.9754 22.6584 52.0748 22.6584H53.0686C53.2673 22.6584 53.3667 22.6584 53.3667 22.7578C53.3667 22.8571 53.4661 22.9565 53.5654 23.0559C53.6648 23.354 53.7642 23.6522 54.0623 23.9503C54.3605 24.2484 54.6586 24.4472 55.0561 24.646C55.553 24.8447 56.0499 24.9441 56.7456 24.9441C57.8387 24.9441 58.6338 24.7453 59.1307 24.3478C59.6276 23.9503 59.9257 23.4534 59.9257 22.7578C59.9257 22.3602 59.8263 21.9627 59.5282 21.6646C59.23 21.3665 58.8325 21.1677 58.3356 20.9689C57.7394 20.7702 57.0437 20.5714 56.1493 20.2733C55.2549 19.9752 54.4599 19.677 53.8636 19.3789C53.2673 19.0807 52.7704 18.6832 52.4723 18.1863C52.1741 17.6894 52.0748 17.0932 52.0748 16.3975C52.0748 15.7019 52.2735 15.1056 52.671 14.6087C53.0686 14.1118 53.5654 13.6149 54.2611 13.3168C54.8574 13.118 55.6524 12.9193 56.6462 12.9193C57.4412 12.9193 58.1369 13.0186 58.7331 13.2174C59.3294 13.4161 59.8263 13.7143 60.2238 14.0124C60.6213 14.3106 60.9195 14.7081 61.1182 15.1056C61.317 15.5031 61.4164 15.9006 61.4164 16.2981C61.4164 16.3975 61.4164 16.4969 61.317 16.5963C61.2176 16.6956 61.1182 16.6956 61.0189 16.6956H60.0251C59.9257 16.6956 59.8263 16.6956 59.7269 16.5963C59.6276 16.4969 59.5282 16.4969 59.5282 16.2981C59.4288 15.8012 59.1307 15.3043 58.6338 15.0062C58.1369 14.6087 57.4412 14.5093 56.6462 14.5093C55.8512 14.5093 55.1555 14.7081 54.6586 15.0062C54.1617 15.3043 53.8636 15.8012 53.8636 16.4969C53.8636 16.8944 53.963 17.2919 54.2611 17.5901C54.4599 17.8882 54.8574 18.087 55.3543 18.2857C55.8512 18.4845 56.5468 18.6832 57.3418 18.9814C58.3356 19.2795 59.1307 19.5776 59.8263 19.8758C60.4226 20.1739 60.9195 20.5714 61.2176 21.0683C61.5158 21.5652 61.7145 22.0621 61.7145 22.8571C61.7145 23.6522 61.5158 24.3478 61.1182 24.9441C60.7207 25.5404 60.1245 25.9379 59.3294 26.236C58.6338 26.3354 57.8387 26.5342 56.7456 26.5342Z" fill="white"/>
<path d="M64.4966 26.3354C64.3973 26.3354 64.2979 26.3354 64.1985 26.236C64.0991 26.1367 64.0991 26.0373 64.0991 25.9379V16.9938C64.0991 16.8944 64.0991 16.7951 64.1985 16.6957C64.2979 16.5963 64.3973 16.5963 64.4966 16.5963H65.391C65.4904 16.5963 65.5898 16.5963 65.6892 16.6957C65.7886 16.7951 65.7886 16.8944 65.7886 16.9938V17.6895C66.0867 17.2919 66.4842 16.9938 66.8817 16.7951C67.2792 16.5963 67.8755 16.3975 68.4718 16.3975C69.8631 16.3975 70.8569 16.9938 71.4532 18.087C71.7513 17.5901 72.1488 17.0932 72.7451 16.7951C73.3414 16.4969 73.9376 16.2982 74.6333 16.2982C75.3289 16.2982 75.9252 16.4969 76.4221 16.7951C76.919 17.0932 77.4159 17.5901 77.714 18.1864C78.0122 18.7826 78.2109 19.5777 78.2109 20.4721V25.9379C78.2109 26.0373 78.2109 26.1367 78.1115 26.236C78.0122 26.3354 77.9128 26.3354 77.8134 26.3354H76.919C76.8196 26.3354 76.7202 26.3354 76.6209 26.236C76.5215 26.1367 76.5215 26.0373 76.5215 25.9379V20.6708C76.5215 19.9752 76.4221 19.3789 76.2233 18.9814C76.0246 18.5839 75.7265 18.2857 75.4283 18.087C74.9314 17.8882 74.5339 17.8882 74.1364 17.8882C73.8383 17.8882 73.4407 17.9876 73.1426 18.087C72.8445 18.2857 72.5463 18.4845 72.2482 18.9814C72.0494 19.3789 71.9501 19.9752 71.9501 20.6708V25.9379C71.9501 26.0373 71.9501 26.1367 71.8507 26.236C71.7513 26.3354 71.6519 26.3354 71.5525 26.3354H70.6581C70.5587 26.3354 70.4594 26.3354 70.36 26.236C70.2606 26.1367 70.2606 26.0373 70.2606 25.9379V20.6708C70.2606 19.9752 70.1612 19.3789 69.9625 18.9814C69.7637 18.5839 69.4656 18.2857 69.1674 18.087C68.6705 17.8882 68.3724 17.8882 67.9749 17.8882C67.6768 17.8882 67.2792 17.9876 66.9811 18.087C66.683 18.2857 66.3848 18.4845 66.0867 18.9814C65.8879 19.3789 65.7886 19.9752 65.7886 20.6708V25.9379C65.7886 26.0373 65.7886 26.1367 65.6892 26.236C65.5898 26.3354 65.4904 26.3354 65.391 26.3354H64.4966Z" fill="white"/>
<path d="M83.5779 26.5342C82.9816 26.5342 82.3853 26.4348 81.8884 26.1367C81.3915 25.8385 80.994 25.5404 80.5965 25.1429C80.2984 24.7454 80.0996 24.2485 80.0996 23.6522C80.0996 22.7578 80.4971 22.0621 81.1928 21.5652C81.8884 21.0683 82.7828 20.6708 83.9754 20.5714L86.758 20.1739V19.5777C86.758 18.9814 86.5592 18.4845 86.2611 18.1864C85.963 17.8882 85.3667 17.6895 84.5717 17.6895C83.9754 17.6895 83.5779 17.7888 83.1804 17.9876C82.8822 18.1864 82.5841 18.4845 82.4847 18.882C82.3853 19.0808 82.2859 19.1801 82.0872 19.1801H81.1928C81.0934 19.1801 80.994 19.1801 80.8946 19.0808C80.7953 18.9814 80.7953 18.882 80.7953 18.7826C80.7953 18.5839 80.8946 18.3851 80.994 18.087C81.1928 17.7888 81.3915 17.4907 81.6897 17.2919C81.9878 16.9938 82.3853 16.7951 82.8822 16.5963C83.3791 16.3975 83.9754 16.2982 84.5717 16.2982C85.3667 16.2982 85.963 16.3975 86.4599 16.5963C86.9568 16.7951 87.3543 16.9938 87.6524 17.3913C87.9505 17.6895 88.1493 18.087 88.2487 18.4845C88.3481 18.882 88.4474 19.2795 88.4474 19.7764V25.9379C88.4474 26.0373 88.4474 26.1367 88.3481 26.236C88.2487 26.3354 88.1493 26.3354 88.0499 26.3354H87.1555C87.0561 26.3354 86.9568 26.3354 86.8574 26.236C86.758 26.1367 86.758 26.0373 86.758 25.9379V25.1429C86.5592 25.3416 86.3605 25.6398 86.0623 25.8385C85.7642 26.0373 85.4661 26.236 85.0686 26.4348C84.671 26.4348 84.1741 26.5342 83.5779 26.5342ZM83.9754 25.1429C84.4723 25.1429 84.9692 25.0435 85.3667 24.8447C85.7642 24.646 86.1617 24.2485 86.3605 23.851C86.6586 23.3541 86.758 22.7578 86.758 22.0621V21.5652L84.5717 21.8634C83.6772 21.9628 82.9816 22.1615 82.5841 22.4596C82.0872 22.7578 81.8884 23.1553 81.8884 23.5528C81.8884 23.9503 81.9878 24.2485 82.1866 24.4472C82.3853 24.646 82.6835 24.8447 82.9816 24.9441C83.2797 25.0435 83.5779 25.1429 83.9754 25.1429Z" fill="white"/>
<path d="M91.627 26.3355C91.5276 26.3355 91.4282 26.3355 91.3289 26.2361C91.2295 26.1367 91.2295 26.0373 91.2295 25.9379V16.9938C91.2295 16.8945 91.2295 16.7951 91.3289 16.6957C91.4282 16.5963 91.5276 16.5963 91.627 16.5963H92.5214C92.6208 16.5963 92.7202 16.5963 92.8196 16.6957C92.9189 16.7951 92.9189 16.8945 92.9189 16.9938V17.7889C93.2171 17.3914 93.5152 16.9938 93.9127 16.7951C94.3102 16.5963 94.9065 16.4969 95.5028 16.4969H96.3972C96.4966 16.4969 96.596 16.4969 96.6953 16.5963C96.7947 16.6957 96.7947 16.7951 96.7947 16.8945V17.6895C96.7947 17.7889 96.7947 17.8883 96.6953 17.9876C96.596 18.087 96.4966 18.087 96.3972 18.087H95.304C94.6084 18.087 94.1115 18.2858 93.714 18.6833C93.3164 19.0808 93.1177 19.5777 93.1177 20.2733V25.8386C93.1177 25.9379 93.1177 26.0373 93.0183 26.1367C92.9189 26.2361 92.8196 26.2361 92.7202 26.2361H91.627V26.3355Z" fill="white"/>
<path d="M102.261 26.3354C101.565 26.3354 100.969 26.236 100.571 25.9379C100.174 25.6397 99.7762 25.2422 99.5774 24.7453C99.3787 24.2484 99.2793 23.6522 99.2793 22.9565V17.9876H97.7886C97.6893 17.9876 97.5899 17.9876 97.4905 17.8882C97.3911 17.7888 97.3911 17.6894 97.3911 17.5901V16.8944C97.3911 16.795 97.3911 16.6956 97.4905 16.5963C97.5899 16.4969 97.6893 16.4969 97.7886 16.4969H99.2793V13.3168C99.2793 13.2174 99.2793 13.118 99.3787 13.0186C99.4781 12.9193 99.5775 12.9193 99.6768 12.9193H100.571C100.671 12.9193 100.77 12.9193 100.869 13.0186C100.969 13.118 100.969 13.2174 100.969 13.3168V16.4969H103.354C103.453 16.4969 103.553 16.4969 103.652 16.5963C103.751 16.6956 103.751 16.795 103.751 16.8944V17.4907C103.751 17.5901 103.751 17.6894 103.652 17.7888C103.553 17.8882 103.453 17.8882 103.354 17.8882H100.969V22.8571C100.969 23.4534 101.068 23.9503 101.267 24.2484C101.466 24.5466 101.863 24.7453 102.36 24.7453H103.553C103.652 24.7453 103.751 24.7453 103.851 24.8447C103.95 24.9441 103.95 25.0435 103.95 25.1429V25.8385C103.95 25.9379 103.95 26.0373 103.851 26.1366C103.751 26.236 103.652 26.236 103.553 26.236H102.261V26.3354Z" fill="white"/>
<path d="M110.311 26.5342C109.217 26.5342 108.323 26.3354 107.528 26.0373C106.832 25.7391 106.236 25.2422 105.838 24.7454C105.441 24.2485 105.242 23.6522 105.242 23.0559C105.242 22.9565 105.242 22.8572 105.342 22.7578C105.441 22.6584 105.54 22.6584 105.64 22.6584H106.633C106.832 22.6584 106.932 22.6584 106.932 22.7578C107.031 22.8572 107.031 22.9565 107.13 23.0559C107.23 23.354 107.329 23.6522 107.627 23.9503C107.925 24.2485 108.224 24.4472 108.621 24.646C109.118 24.8447 109.615 24.9441 110.311 24.9441C111.404 24.9441 112.199 24.7454 112.696 24.3478C113.192 23.9503 113.491 23.4534 113.491 22.7578C113.491 22.3603 113.391 21.9627 113.093 21.6646C112.795 21.3665 112.397 21.1677 111.901 20.969C111.404 20.7702 110.609 20.5714 109.714 20.2733C108.82 19.9752 108.025 19.677 107.429 19.3789C106.832 19.0808 106.335 18.6832 106.037 18.1863C105.739 17.6895 105.64 17.0932 105.64 16.3975C105.64 15.7019 105.838 15.1056 106.236 14.6087C106.633 14.1118 107.13 13.6149 107.826 13.3168C108.522 13.0186 109.317 12.8199 110.311 12.8199C111.106 12.8199 111.801 12.9193 112.397 13.118C112.994 13.3168 113.491 13.6149 113.888 13.9131C114.286 14.2112 114.584 14.6087 114.783 15.0062C114.981 15.4037 115.081 15.8013 115.081 16.1988C115.081 16.2981 115.081 16.3975 114.981 16.4969C114.882 16.5963 114.783 16.5963 114.683 16.5963H113.689C113.59 16.5963 113.491 16.5963 113.391 16.4969C113.292 16.3975 113.192 16.3975 113.192 16.1988C113.093 15.7019 112.795 15.205 112.298 14.9068C111.801 14.5093 111.106 14.4099 110.311 14.4099C109.515 14.4099 108.82 14.6087 108.323 14.9068C107.826 15.205 107.528 15.7019 107.528 16.3975C107.528 16.795 107.627 17.1926 107.925 17.4907C108.124 17.7888 108.522 17.9876 109.019 18.1863C109.515 18.3851 110.211 18.5839 111.006 18.882C112 19.1801 112.795 19.4783 113.491 19.7764C114.087 20.0745 114.584 20.4721 114.882 20.969C115.18 21.4658 115.379 21.9627 115.379 22.7578C115.379 23.5528 115.18 24.2485 114.783 24.8447C114.385 25.441 113.789 25.8385 112.994 26.1367C112.199 26.3354 111.304 26.5342 110.311 26.5342Z" fill="white"/>
<path d="M117.962 29.9131C117.863 29.9131 117.764 29.9131 117.664 29.8137C117.565 29.7143 117.565 29.6149 117.565 29.5155V16.8944C117.565 16.7951 117.565 16.6957 117.664 16.5963C117.764 16.4969 117.863 16.4969 117.962 16.4969H118.857C118.956 16.4969 119.056 16.4969 119.155 16.5963C119.254 16.6957 119.254 16.7951 119.254 16.8944V17.6895C119.553 17.2919 119.95 16.8944 120.447 16.6957C120.944 16.3975 121.54 16.2982 122.335 16.2982C123.031 16.2982 123.627 16.3975 124.124 16.6957C124.621 16.8944 125.018 17.2919 125.316 17.6895C125.615 18.087 125.913 18.5839 126.012 19.0808C126.211 19.5777 126.31 20.1739 126.31 20.7702C126.31 20.969 126.31 21.1677 126.31 21.3665C126.31 21.5652 126.31 21.764 126.31 21.9628C126.31 22.559 126.211 23.1553 126.012 23.6522C125.813 24.1491 125.615 24.646 125.316 25.0435C125.018 25.441 124.621 25.7392 124.124 26.0373C123.627 26.236 123.031 26.4348 122.335 26.4348C121.639 26.4348 120.944 26.3354 120.447 26.0373C119.95 25.7392 119.553 25.441 119.254 25.0435V29.4162C119.254 29.5155 119.254 29.6149 119.155 29.7143C119.056 29.8137 118.956 29.8137 118.857 29.8137H117.962V29.9131ZM121.938 24.9441C122.633 24.9441 123.13 24.8447 123.428 24.5466C123.826 24.2485 124.124 23.851 124.223 23.4534C124.422 22.9565 124.521 22.4596 124.521 21.9628C124.521 21.5652 124.521 21.2671 124.521 20.8696C124.521 20.3727 124.422 19.8758 124.223 19.3789C124.025 18.882 123.826 18.5839 123.428 18.2857C123.031 17.9876 122.534 17.8882 121.938 17.8882C121.341 17.8882 120.844 17.9876 120.447 18.2857C120.049 18.5839 119.751 18.9814 119.553 19.3789C119.354 19.7764 119.254 20.2733 119.254 20.7702C119.254 20.969 119.254 21.1677 119.254 21.4659C119.254 21.764 119.254 21.9628 119.254 22.1615C119.254 22.559 119.354 23.0559 119.553 23.4534C119.751 23.851 120.049 24.2485 120.447 24.5466C120.844 24.8447 121.341 24.9441 121.938 24.9441Z" fill="white"/>
<path d="M132.671 26.5342C131.379 26.5342 130.385 26.1367 129.59 25.3416C128.795 24.5466 128.397 23.4534 128.298 22.0621C128.298 21.8634 128.298 21.6646 128.298 21.4659C128.298 21.1677 128.298 20.969 128.298 20.8696C128.397 19.9752 128.596 19.1801 128.894 18.4845C129.292 17.7888 129.789 17.2919 130.385 16.8944C130.981 16.4969 131.776 16.2982 132.671 16.2982C133.664 16.2982 134.459 16.4969 135.056 16.8944C135.751 17.2919 136.248 17.8882 136.546 18.5839C136.844 19.2795 137.043 20.1739 137.043 21.1677V21.4659C137.043 21.5652 137.043 21.6646 136.944 21.764C136.844 21.8634 136.745 21.8634 136.646 21.8634H130.087C130.087 21.8634 130.087 21.8634 130.087 21.9628C130.087 22.0621 130.087 22.0621 130.087 22.0621C130.087 22.559 130.186 23.0559 130.385 23.5528C130.584 23.9503 130.882 24.3478 131.279 24.646C131.677 24.9441 132.074 25.0435 132.671 25.0435C133.167 25.0435 133.466 24.9441 133.764 24.8447C134.062 24.7454 134.36 24.5466 134.459 24.3478C134.658 24.1491 134.757 24.0497 134.857 23.9503C134.956 23.7516 135.056 23.6522 135.155 23.6522C135.254 23.6522 135.354 23.5528 135.453 23.5528H136.348C136.447 23.5528 136.546 23.5528 136.646 23.6522C136.745 23.7516 136.745 23.851 136.745 23.9503C136.745 24.1491 136.646 24.3478 136.447 24.646C136.248 24.9441 135.95 25.1429 135.652 25.441C135.254 25.7392 134.857 25.9379 134.36 26.1367C133.863 26.4348 133.366 26.5342 132.671 26.5342ZM130.087 20.6708H135.254V20.5714C135.254 19.9752 135.155 19.4783 134.956 19.0808C134.757 18.6833 134.459 18.2857 134.062 18.087C133.664 17.7888 133.167 17.6895 132.671 17.6895C132.174 17.6895 131.677 17.7888 131.279 18.087C130.882 18.3851 130.584 18.6833 130.385 19.0808C130.186 19.4783 130.087 20.0746 130.087 20.6708Z" fill="white"/>
<path d="M139.727 26.3355C139.627 26.3355 139.528 26.3355 139.428 26.2361C139.329 26.1367 139.329 26.0373 139.329 25.938V16.9939C139.329 16.8945 139.329 16.7951 139.428 16.6957C139.528 16.5963 139.627 16.5963 139.727 16.5963H140.621C140.72 16.5963 140.82 16.5963 140.919 16.6957C141.019 16.7951 141.019 16.8945 141.019 16.9939V17.7889C141.317 17.3914 141.714 16.9939 142.211 16.7951C142.708 16.497 143.404 16.3976 144.099 16.3976C144.894 16.3976 145.59 16.5963 146.186 16.9939C146.783 17.3914 147.18 17.8883 147.478 18.4845C147.776 19.0808 147.876 19.8758 147.876 20.6709V26.0373C147.876 26.1367 147.876 26.2361 147.776 26.3355C147.677 26.4349 147.578 26.4349 147.478 26.4349H146.584C146.484 26.4349 146.385 26.4349 146.286 26.3355C146.186 26.2361 146.186 26.1367 146.186 26.0373V20.7703C146.186 19.8758 145.987 19.1802 145.59 18.6833C145.192 18.1864 144.497 17.8883 143.702 17.8883C142.907 17.8883 142.31 18.1864 141.814 18.6833C141.317 19.1802 141.118 19.8758 141.118 20.7703V26.0373C141.118 26.1367 141.118 26.2361 141.019 26.3355C140.919 26.4349 140.82 26.4349 140.72 26.4349H139.727V26.3355Z" fill="white"/>
<path d="M154.336 26.5342C153.64 26.5342 153.044 26.4348 152.547 26.1367C152.05 25.8385 151.653 25.5404 151.255 25.1429C150.957 24.7454 150.659 24.2485 150.559 23.6522C150.361 23.1553 150.361 22.559 150.261 21.9627C150.261 21.764 150.261 21.5652 150.261 21.3665C150.261 21.1677 150.261 20.969 150.261 20.7702C150.261 20.1739 150.361 19.5777 150.559 19.0808C150.758 18.5839 150.957 18.087 151.255 17.5901C151.553 17.1926 151.951 16.795 152.547 16.5963C153.044 16.2981 153.64 16.1988 154.336 16.1988C155.031 16.1988 155.727 16.2981 156.224 16.5963C156.721 16.8944 157.118 17.1926 157.417 17.5901V13.2174C157.417 13.118 157.417 13.0186 157.516 12.9193C157.615 12.8199 157.715 12.8199 157.814 12.8199H158.708C158.808 12.8199 158.907 12.8199 159.007 12.9193C159.106 13.0186 159.106 13.118 159.106 13.2174V25.7391C159.106 25.8385 159.106 25.9379 159.007 26.0373C158.907 26.1367 158.808 26.1367 158.708 26.1367H157.814C157.715 26.1367 157.615 26.1367 157.516 26.0373C157.417 25.9379 157.417 25.8385 157.417 25.7391V24.9441C157.118 25.3416 156.721 25.6398 156.224 25.9379C155.727 26.3354 155.131 26.5342 154.336 26.5342ZM154.733 24.9441C155.33 24.9441 155.826 24.8447 156.224 24.5466C156.621 24.2485 156.92 23.8509 157.118 23.4534C157.317 22.9565 157.417 22.559 157.417 22.0621C157.417 21.8634 157.417 21.6646 157.417 21.3665C157.417 21.0683 157.417 20.8696 157.417 20.6708C157.417 20.2733 157.317 19.7764 157.118 19.3789C156.92 18.9814 156.621 18.5839 156.224 18.2857C155.826 17.9876 155.33 17.8882 154.733 17.8882C154.137 17.8882 153.541 17.9876 153.243 18.2857C152.845 18.5839 152.547 18.9814 152.448 19.3789C152.249 19.8758 152.149 20.2733 152.149 20.8696C152.149 21.2671 152.149 21.5652 152.149 21.9627C152.149 22.4596 152.249 22.9565 152.448 23.4534C152.646 23.9503 152.845 24.2485 153.243 24.5466C153.64 24.8447 154.137 24.9441 154.733 24.9441Z" fill="white"/>
<path d="M20.3727 40.7453C31.6242 40.7453 40.7453 31.6242 40.7453 20.3727C40.7453 9.12116 31.6242 0 20.3727 0C9.12116 0 0 9.12116 0 20.3727C0 31.6242 9.12116 40.7453 20.3727 40.7453Z" fill="url(#paint0_linear_1595_480)"/>
<path fill-rule="evenodd" clip-rule="evenodd" d="M16.596 6.55907C14.2109 7.45348 12.8196 8.34789 11.5277 10.0373C10.2358 11.8261 9.73888 13.5156 9.83826 15.8013C10.037 18.1864 10.6333 20.0746 13.3165 22.5591L15.6022 24.4473L17.3911 23.1553L15.4035 21.3665C12.919 19.0808 11.9252 17.292 11.9252 15.3044C11.9252 12.2237 13.5153 9.93795 16.6954 8.64602C20.3724 7.05596 24.447 7.85099 27.2296 10.733L28.6209 12.1243L26.5339 13.615L24.9438 12.2237C23.155 10.6336 21.565 10.2361 19.3786 10.5342C16.6954 10.9317 14.5091 13.5156 14.9066 15.8013C15.1053 17.292 15.7016 17.9876 19.8755 21.8634C23.155 24.9442 23.2544 25.0435 23.2544 26.2361C23.2544 27.7268 22.8569 28.4224 21.6643 28.9193C19.6768 29.8137 18.4842 29.4162 15.9004 27.0311L14.0122 25.2423L8.94385 29.615L10.7327 31.4038C13.3165 33.7889 14.2109 34.3852 15.9004 35.0808C17.9873 35.8758 20.3724 36.0746 22.6581 35.4783C25.0432 34.9814 26.6333 34.087 28.3227 32.497C30.2109 30.7081 31.1053 28.7206 30.9066 26.1367C30.8072 23.5529 29.8134 21.5653 27.6271 19.3789L25.1426 17.0932L23.2544 18.5839L25.242 20.3727C27.7265 22.6584 28.7202 24.3479 28.7202 26.5342C28.7202 31.1057 23.7513 34.5839 18.5836 33.6895C16.596 33.292 14.3103 32.0994 13.0184 30.6088L12.0246 29.615L14.0122 27.9255L15.2047 29.2175C17.1923 31.3044 19.9749 31.9007 22.5588 30.8075C24.9438 29.8137 26.1364 27.528 25.5401 25.3417C25.242 24.3479 24.447 23.4535 21.4656 20.5715C19.3786 18.5839 17.5898 16.6957 17.3911 16.2982C16.596 14.41 18.2855 12.5218 20.7699 12.5218C22.1612 12.5218 22.6581 12.7206 24.5463 14.41C24.7451 14.6088 26.6333 16.2982 26.6333 16.2982L31.3041 12.4224C31.4035 12.323 31.4035 12.323 31.3041 12.2237L30.8072 11.528C30.1115 10.6336 29.4159 9.83857 28.5215 9.14292C27.8258 8.54664 27.1302 8.04975 26.7327 7.75161C23.6519 5.86341 19.8755 5.4659 16.596 6.55907Z" fill="#163676" stroke="#163676" stroke-width="0.745342" stroke-miterlimit="10"/>
</g>
<defs>
<linearGradient id="paint0_linear_1595_480" x1="4.10345" y1="8.67916" x2="35.9047" y2="31.5363" gradientUnits="userSpaceOnUse">
<stop stop-color="#0AF0DE"/>
<stop offset="1" stop-color="#09E3FC"/>
</linearGradient>
<clipPath id="clip0_1595_480">
<rect width="160" height="40.7453" fill="white"/>
</clipPath>
</defs>
</svg>
